# xmcd
#
# Track frame offsets:
# 182
# 13730
# 25077
# 38292
# 52067
# 64572
# 76777
# 91962
# 107715
# 121372
# 136597
#
# Disc length: 2034 seconds
#
#
# Revision: 0
# Processed by: cddbd v1.5.1PL2 Copyright (c) Steve Scherf et al.
# Submitted via: FreeRIP 2.30 
#
DISCID=7a07f00b
DTITLE=Beth Maguire - Spoiled Rotten
DYEAR=1998
DGENRE=Country
TTITLE0=Spoiled Rotten
TTITLE1=Did You Ever Love Me
TTITLE2=I'm Leavin You For Me
TTITLE3=One Man Band
TTITLE4=American Boys
TTITLE5=Heart With Your Name On It
TTITLE6=About Last Night
TTITLE7=I Hate Loving You
TTITLE8=Put My Tears On Hold
TTITLE9=I'm Leavin It Up To You
TTITLE10=Hallelujah
EXTD=
EXTT0=
EXTT1=
EXTT2=
EXTT3=
EXTT4=
EXTT5=
EXTT6=
EXTT7=
EXTT8=
EXTT9=
EXTT10=
PLAYORDER=
